# xmcd
#
# Track frame offsets: 
#        150
#        26432
#        50692
#        79392
#        91615
#        111152
#        119915
#        137520
#        153017
#        175765
#        192732
#        204560
#        218675
#        232322
#        247027
#        257595
#        265605
#        282802
#        292777
#
# Disc length: 4021 seconds
#
# Revision: 3
# Processed by: cddbd v1.5.2PL0 Copyright (c) Steve Scherf et al.
# Submitted via: ExactAudioCopy v0.99pb4
#
DISCID=120fb313
DTITLE=Arthur Lima, piano - Piano - The Greatest Hits [CD4)
DYEAR=1999
DGENRE=Classical
TTITLE0=Chopin, Waltz No 1 in E-flat, Op 18
TTITLE1=Chopin, Waltz No 2 in A-flat, Op 34-1
TTITLE2=Chopin, Waltz No 3 in A minor, Op 34-2
TTITLE3=Chopin, Waltz No 4 in F, Op 42
TTITLE4=Chopin, Waltz No 5 in A-flat, Op 42
TTITLE5=Chopin, Waltz No 6 in D-flat, Op 64-1
TTITLE6=Chopin, Waltz No 7 in C-sharp minor, Op 64-2
TTITLE7=Chopin, Waltz No 8 in A-flat, Op 64-3
TTITLE8=Chopin, Waltz No 9 in A-flat, Op 69-1
TTITLE9=Chopin, Waltz No 10 in B minor, Op 69-2
TTITLE10=Chopin, Waltz No 11 in G-flat, Op 70-1
TTITLE11=Chopin, Waltz No 12 in F minor, Op posthumous
TTITLE12=Chopin, Waltz No 13 in D-flat, Op 70-3
TTITLE13=Chopin, Waltz No 14 in E minor, Op posthumous
TTITLE14=Chopin, Waltz No 15 in E, Op posthumous
TTITLE15=Chopin, Waltz No 16 in A-flat, Op posthumous
TTITLE16=Chopin, Waltz No 17 in E-flat, Op posthumous
TTITLE17=Chopin, Waltz No 18 in A minor, Op posthumous
TTITLE18=Chopin, Waltz No 19 in E-flat, Op posthumous
EXTD=YEAR: 1999
EXTT0=
EXTT1=
EXTT2=
EXTT3=
EXTT4=
EXTT5=
EXTT6=
EXTT7=
EXTT8=
EXTT9=
EXTT10=
EXTT11=
EXTT12=
EXTT13=
EXTT14=
EXTT15=
EXTT16=
EXTT17=
EXTT18=
PLAYORDER=
